<?xml version="1.0" encoding="UTF-8"?><svg xmlns="http://www.w3.org/2000/svg" version="1.1" viewBox="0 0 640 640"><path d="M633,44.4c-9-15.1-25.4-24.4-43-24.4H50c-17.6,0-34,9.2-43,24.4-9,15.1-9.4,33.9-1,49.4l270,500c8.7,16.1,25.6,26.2,44,26.2s35.2-10.1,44-26.2L634,93.8c8.4-15.5,8-34.2-1-49.4ZM498.5,177.4l-53.5,53.5c-8.2,8.2-22.3,2.5-22.3-9.2v-27c-18,1.6-35.7,9.4-49.5,23.2v.2c-12.5,12.5-20,28.1-22.5,44.4l8.2,115.6c1.6,22.7-16.3,42-39.1,42.1-22.7,0-40.7-19.4-39.1-42.1l8.2-115.6c-2.5-16.3-10-31.9-22.5-44.4v-.2c-13.8-13.8-31.5-21.6-49.5-23.2v27c0,11.7-14.1,17.4-22.3,9.2l-53.5-53.5c-5-5-5-13.3,0-18.4l53.5-53.5c8.2-8.2,22.2-2.4,22.3,9.2v19.8c33.3,1.7,66.4,15.3,91.9,40.8,3.9,3.9,7.6,8.1,11,12.3,3.4-4.3,7-8.4,11-12.3,25.5-25.5,58.6-39.2,91.9-40.8v-19.8c0-11.6,14.1-17.4,22.3-9.2l53.5,53.5c5,5,5,13.3,0,18.4Z"/></svg>